# AST/ASF file generated using VICON BodyLanguage
# -----------------------------------------------
:version 1.10
:name VICON
:units
  mass 1.0
  length 0.45
  angle deg
:documentation
   .ast/.asf automatically generated from VICON data using
   VICON BodyBuilder and BodyLanguage model FoxedUp or BRILLIANT.MOD
:root
   order TX TY TZ RX RY RZ
   axis XYZ
   position 0 0 0  
   orientation 0 0 0 
:bonedata
  begin
     id 1 
     name lhipjoint
     direction 0.523584 -0.783993 0.333487 
     length 2.44404 
     axis 0 0 0  XYZ
  end
  begin
     id 2 
     name lfemur
     direction 0.34202 -0.939693 0  
     length 7.29523  
     axis 0 0 20  XYZ
    dof rx ry rz
    limits (-160.0 20.0)
           (-70.0 70.0)
           (-60.0 70.0)
  end
  begin
     id 3 
     name ltibia
     direction 0.34215 -0.939645 0   
     length 7.81194   
     axis 0 0 20   XYZ
    dof rx
    limits (-10.0 170.0)
  end
  begin
     id 4 
     name lfoot
     direction 0.0941847 -0.25877 0.961336   
     length 2.41437   
     axis -90 7.62852e-016 20   XYZ
    dof rx rz
    limits (-45.0 90.0)
           (-70.0 20.0)
  end
  begin
     id 5 
     name ltoes
     direction 1.53526e-011 -4.21768e-011 1   
     length 1.2048   
     axis -90 7.62852e-016 20   XYZ
    dof rx
    limits (-90.0 20.0)
  end
  begin
     id 6 
     name rhipjoint
     direction -0.46599 -0.814191 0.346332   
     length 2.35339  
     axis 0 0 0  XYZ 
  end
  begin
     id 7 
     name rfemur
     direction -0.34202 -0.939693 0   
     length 7.34966   
     axis 0 0 -20   XYZ
    dof rx ry rz
    limits (-160.0 20.0)
           (-70.0 70.0)
           (-70.0 60.0)
  end
  begin
     id 8 
     name rtibia
     direction -0.34202 -0.939693 0   
     length 7.89934   
     axis 0 0 -20   XYZ
    dof rx
    limits (-10.0 170.0)
 end
 begin
     id 9 
     name rfoot
     direction -0.0975468 -0.268008 0.958466   
     length 2.27725  
     axis -90 -7.62852e-016 -20   XYZ
    dof rx rz
    limits (-45.0 90.0)
           (-20.0 70.0)
  end
  begin
     id 10 
     name rtoes
     direction -1.53563e-011 -4.22022e-011 1   
     length 1.13683   
     axis -90 -7.62852e-016 -20   XYZ
    dof rx
    limits (-90.0 20.0)
  end
  begin
     id 11 
     name lowerback
     direction -0.00456414 0.999242 -0.0386661   
     length 2.16968   
     axis 0 0 0   XYZ
    dof rx ry rz
    limits (-20.0 45.0)
           (-30.0 30.0)
           (-30.0 30.0)
  end
  begin
     id 12 
     name upperback
     direction 0.0297078 0.998988 0.0337799   
     length 2.15674   
     axis 0 0 0   XYZ
    dof rx ry rz
    limits (-20.0 45.0)
           (-30.0 30.0)
           (-30.0 30.0)
  end
  begin
     id 13 
     name thorax
     direction 0.0309305 0.998202 0.0513506   
     length 2.16319   
     axis 0 0 0   XYZ
    dof rx ry rz
    limits (-20.0 45.0)
           (-30.0 30.0)
           (-30.0 30.0)
  end
  begin
     id 14 
     name lowerneck
     direction -0.103039 0.983474 0.148872   
     length 1.64318   
     axis 0 0 0   XYZ
    dof rx ry rz
    limits (-20.0 45.0)
           (-30.0 30.0)
           (-30.0 30.0)
  end
  begin
     id 15 
     name upperneck
     direction 0.128124 0.971079 -0.201469   
     length 1.68242   
     axis 0 0 0   XYZ
    dof rx ry rz
    limits (-20.0 45.0)
           (-30.0 30.0)
           (-30.0 30.0)
  end
  begin
     id 16
     name head
     direction 0.0496365 0.994919 -0.0875941  
     length 1.70108  
     axis 0 0 0   XYZ
    dof rx ry rz
    limits (-20.0 45.0)
           (-30.0 30.0)
           (-30.0 30.0)
  end
  begin
     id 17 
     name lclavicle
     direction 0.887148 0.430222 -0.166967  
     length 3.25763  
     axis 0 0 0   XYZ
    dof ry rz
    limits (-20.0 10.0)
           (0.0 20.0)
  end
  begin
     id 18 
     name lhumerus
     direction 1 -4.48962e-011 1.92156e-027   
     length 5.10755   
     axis 180 -30 -90   XYZ
    dof rx ry rz
    limits (-60.0 90.0)
           (-90.0 90.0)
           (-90.0 90.0)
  end
  begin
     id 19
     name lradius
     direction 1 -4.48958e-011 7.10963e-027   
     length 3.36253   
     axis 180 -30 -90   XYZ
    dof rx
    limits (-10.0 170.0)
  end
  begin
     id 20
     name lwrist
     direction 1 -4.48946e-011 1.82396e-026   
     length 1.68127   
     axis -1.15222e-014 90 90   XYZ
    dof ry
    limits (-180.0 0.0)
 end
  begin
     id 21 
     name lhand
     direction 1 -4.48919e-011 3.64759e-026   
     length 0.619088   
     axis -2.32787e-014 90 90   XYZ
    dof rx rz
    limits (-90.0 90.0)
           (-45.0 45.0)
  end
  begin
     id 22 
     name lfingers
     direction 1 -4.49012e-011 7.29744e-026   
     length 0.499125   
     axis -4.6558e-014 90 90   XYZ
    dof rx
    limits (0.0 90.0)
  end
  begin
     id 23
     name lthumb
     direction 0.707107 -6.35028e-011 0.707107   
     length 0.716646   
     axis -90 45 3.78391e-014   XYZ
    dof rx rz
    limits (-45.0 45.0)
           (-45.0 45.0)
  end
  begin
     id 24 
     name rclavicle
     direction -0.82886 0.533198 -0.169384   
     length 3.20647  
     axis 0 0 0   XYZ 
    dof ry rz
    limits (-10.0 20.0)
           (-20.0 0.0)
  end
  begin
     id 25 
     name rhumerus
     direction -1 -4.48973e-011 3.06863e-027  
     length 5.27387   
     axis 180 30 90   XYZ
    dof rx ry rz
    limits (-90.0 60.0)
           (-90.0 90.0)
           (-90.0 90.0)
  end
  begin
     id 26 
     name rradius
     direction -1 -4.48988e-011 9.4797e-027   
     length 3.40144   
     axis 180 30 90   XYZ
    dof rx
    limits (-10.0 170.0)
  end
  begin
     id 27 
     name rwrist
     direction -1 -4.48897e-011 1.82366e-026   
     length 1.70072   
     axis -1.15222e-014 -90 -90   XYZ
    dof ry
    limits (-180.0 0.0)
  end
  begin
     id 28
     name rhand
     direction -1 -4.48965e-011 3.64815e-026   
     length 0.742821   
     axis -2.32787e-014 -90 -90   XYZ
    dof rx rz
    limits (-90.0 90.0)
           (-45.0 45.0)
  end
  begin
     id 29
     name rfingers
     direction -1 -4.49016e-011 7.29754e-026   
     length 0.598881   
     axis -4.6558e-014 -90 -90   XYZ
    dof rx
    limits (0.0 90.0)
  end
  begin
     id 30
     name rthumb
     direction -0.707107 -6.3488e-011 0.707107   
     length 0.859877   
     axis -90 -45 -3.78391e-014   XYZ
    dof rx rz
    limits (-45.0 45.0)
           (-45.0 45.0)
  end
:hierarchy
  begin
    root lhipjoint rhipjoint lowerback
    lhipjoint lfemur
    lfemur ltibia
    ltibia lfoot
    lfoot ltoes
    rhipjoint rfemur
    rfemur rtibia
    rtibia rfoot
    rfoot rtoes
    lowerback upperback
    upperback thorax
    thorax lowerneck lclavicle rclavicle
    lowerneck upperneck
    upperneck head
    lclavicle lhumerus
    lhumerus lradius
    lradius lwrist
    lwrist lhand lthumb
    lhand lfingers
    rclavicle rhumerus
    rhumerus rradius
    rradius rwrist
    rwrist rhand rthumb
    rhand rfingers
  end

#!OML:ASF F:\Work\Patient Classification 1\justin\Session 1\justin.ASF
:FULLY-SPECIFIED
:DEGREES
1826
root 1.97152 15.5178 15.2492 325.592 -118.28 -351.446
lowerback 29.6324 6.67907 0.861343
upperback 17.5237 5.90681 2.17246
thorax 3.53253 1.68775 0.341036
lowerneck -12.9058 5.74001 -12.2707
upperneck 34.0894 9.76696 1.57572
head 12.8984 2.42622 3.95448
rclavicle 3.81667e-014 -1.98785e-014
rhumerus -30.1049 -4.18467 -80.5898
rradius 38.4911
rwrist -11.5891
rhand -17.3819 15.3405
rfingers 7.12502
rthumb 8.86685 -14.4532
lclavicle 3.81667e-014 -1.98785e-014
lhumerus -43.4221 -7.91607 95.7974
lradius 66.5567
lwrist -3.88182
lhand -45.286 21.871
lfingers 7.12502
lthumb -18.0588 51.0526
rfemur -30.928 -17.2494 13.471
rtibia 76.3332
rfoot 19.971 5.91901
rtoes -6.15018
lfemur -39.4259 14.1182 2.52749
ltibia 80.4936
lfoot 18.6988 -5.71329
ltoes -25.3612
1827
root 1.99116 15.5112 15.2508 326.453 -117.466 -352.752
lowerback 29.5212 6.69935 0.250483
upperback 17.5148 5.81742 2.10038
thorax 3.50853 1.60907 0.628777
lowerneck -12.9098 5.65517 -12.2383
upperneck 34.0076 9.67204 1.49687
head 12.8816 2.38643 3.90582
rclavicle 2.66371e-014 -5.1684e-015
rhumerus -30.4165 -4.35145 -80.5204
rradius 38.5932
rwrist -11.3937
rhand -16.8462 15.2513
rfingers 7.12502
rthumb 9.38372 -14.5198
lclavicle 2.66371e-014 -5.1684e-015
lhumerus -43.3999 -8.49504 96.111
lradius 66.4065
lwrist -5.2999
lhand -45.5597 25.3066
lfingers 7.12502
lthumb -18.3222 54.4637
rfemur -30.6364 -17.7537 12.3389
rtibia 76.476
rfoot 19.7666 6.12974
rtoes -6.77751
lfemur -39.8713 13.8497 1.33599
ltibia 81.1853
lfoot 18.5258 -5.45019
ltoes -25.7057
1828
root 2.01209 15.4971 15.252 326.7 -116.927 -353.368
lowerback 29.436 6.77047 -0.0753015
upperback 17.5079 5.86118 2.26129
thorax 3.48154 1.60481 0.978625
lowerneck -12.7713 5.60107 -11.985
upperneck 33.8074 9.647 1.06853
head 12.8196 2.3685 3.68596
rclavicle -2.43511e-014 4.33351e-014
rhumerus -30.7373 -3.51474 -80.236
rradius 38.7772
rwrist -12.0927
rhand -16.8719 15.0727
rfingers 7.12502
rthumb 9.35893 -14.6995
lclavicle -2.43511e-014 4.33351e-014
lhumerus -43.3503 -8.98676 96.3744
lradius 66.4338
lwrist -5.21971
lhand -44.738 24.5339
lfingers 7.12502
lthumb -17.5315 53.7634
rfemur -30.3776 -18.141 11.7391
rtibia 76.6099
rfoot 19.4852 6.17782
rtoes -7.23473
lfemur -40.391 13.577 0.735345
ltibia 81.9935
lfoot 18.5014 -5.03064
ltoes -24.9222
1829
root 2.03668 15.4812 15.2678 325.75 -117.46 -352.082
lowerback 29.1129 6.63978 1.1073
upperback 17.2922 6.04992 2.37064
thorax 3.48693 1.82249 0.410216
lowerneck -12.4861 5.66901 -11.5728
upperneck 33.5077 9.64623 0.915601
head 12.662 2.43401 3.53884
rclavicle 2.18663e-015 -6.04305e-014
rhumerus -31.1639 -4.26624 -80.4216
rradius 38.8696
rwrist -11.8532
rhand -18.0515 15.3477
rfingers 7.12502
rthumb 8.22066 -14.4724
lclavicle 2.18663e-015 -6.04305e-014
lhumerus -43.1886 -9.3987 96.1371
lradius 66.5085
lwrist -3.52562
lhand -42.8385 20.7277
lfingers 7.12502
lthumb -15.7029 50.1105
rfemur -30.836 -17.9147 12.8983
rtibia 76.6072
rfoot 19.5374 5.55764
rtoes -7.08558
lfemur -41.4119 14.0637 1.70516
ltibia 82.9371
lfoot 18.8791 -4.2541
ltoes -21.9234
1830
root 2.0574 15.4731 15.3325 328.28 -117.191 -353.735
lowerback 28.3408 6.71679 1.6856
upperback 16.8523 6.44163 1.65248
thorax 3.47275 2.18739 -0.747108
lowerneck -12.1901 5.47474 -10.5964
upperneck 33.2502 9.04045 1.10532
head 12.5566 2.35209 3.36288
rclavicle -1.94809e-014 -1.90833e-014
rhumerus -31.6868 -5.79214 -80.766
rradius 38.9919
rwrist -11.7974
rhand -18.6059 15.375
rfingers 7.12502
rthumb 7.68552 -14.4653
lclavicle -1.94809e-014 -1.90833e-014
lhumerus -43.1543 -11.5767 96.1326
lradius 66.2915
lwrist -4.41303
lhand -43.3766 23.8703
lfingers 7.12502
lthumb -16.221 53.2117
rfemur -32.396 -18.0896 12.2884
rtibia 76.5687
rfoot 20.0826 5.56111
rtoes -7.73705
lfemur -43.3334 14.3576 0.309165
ltibia 83.8274
lfoot 19.1261 -2.74081
ltoes -19.4487
1831
root 2.09693 15.4884 15.3162 325.502 -118.119 -350.843
lowerback 28.2528 6.83623 3.6569
upperback 16.7906 7.06825 1.97295
thorax 3.69936 2.65456 -1.6136
lowerneck -12.065 5.15925 -9.59775
upperneck 32.9967 8.3708 1.03428
head 12.5132 2.20241 3.08323
rclavicle 2.40529e-014 -4.57205e-014
rhumerus -32.0224 -7.01287 -80.9187
rradius 39.1285
rwrist -11.7676
rhand -18.273 15.2403
rfingers 7.12502
rthumb 8.00686 -14.588
lclavicle 2.40529e-014 -4.57205e-014
lhumerus -42.7394 -13.1815 95.805
lradius 66.2205
lwrist -3.06656
lhand -42.0231 21.7352
lfingers 7.12502
lthumb -14.9174 51.178
rfemur -32.049 -16.862 14.5473
rtibia 76.1863
rfoot 19.9307 4.5548
rtoes -8.66988
lfemur -43.7184 15.0477 2.44152
ltibia 84.5638
lfoot 19.3408 -3.33524
ltoes -18.6365
1832
root 2.1511 15.5304 15.3259 323.527 -118.736 -348.955
lowerback 28.3632 6.57557 4.94373
upperback 16.7316 7.03141 2.22737
thorax 3.74047 2.72022 -2.0392
lowerneck -11.991 5.23543 -9.32605
upperneck 32.6573 8.51441 0.708316
head 12.383 2.28479 2.92094
rclavicle -2.54444e-014 4.73108e-014
rhumerus -32.115 -7.09367 -80.9529
rradius 39.1751
rwrist -11.4861
rhand -18.1488 15.3101
rfingers 7.12502
rthumb 8.12672 -14.5137
lclavicle -2.54444e-014 4.73108e-014
lhumerus -42.245 -12.79 95.6062
lradius 65.8589
lwrist -3.34189
lhand -41.309 21.5863
lfingers 7.12502
lthumb -14.2294 51.0788
rfemur -31.4409 -14.6646 16.2375
rtibia 75.5774
rfoot 19.8426 2.71997
rtoes -8.50409
lfemur -43.9331 15.4878 3.74195
ltibia 85.0747
lfoot 19.4833 -3.51675
ltoes -17.7491
1833
root 2.18162 15.5151 15.3074 321.247 -119.481 -346.827
lowerback 28.5102 6.24652 6.18148
upperback 16.6348 6.90232 2.5464
thorax 3.70191 2.72541 -2.35222
lowerneck -11.9358 5.40514 -9.29379
upperneck 32.4193 8.79975 0.531728
head 12.2711 2.41025 2.87441
rclavicle -3.12092e-014 1.47101e-014
rhumerus -32.22 -6.94459 -80.9855
rradius 39.1197
rwrist -11.1865
rhand -18.1636 15.3775
rfingers 7.12502
rthumb 8.11242 -14.4467
lclavicle -3.12092e-014 1.47101e-014
lhumerus -41.7094 -11.4984 95.2441
lradius 65.2846
lwrist -3.82107
lhand -40.5343 20.9756
lfingers 7.12502
lthumb -13.4828 50.5192
rfemur -30.9985 -14.0764 17.9141
rtibia 75.3251
rfoot 19.7405 1.59501
rtoes -7.23787
lfemur -44.3555 16.2301 5.39848
ltibia 85.8339
lfoot 19.8811 -3.62309
ltoes -16.3833
1834
root 2.21275 15.4928 15.2457 317.122 -120.978 -343.435
lowerback 29.1608 6.11128 7.92931
upperback 16.7539 7.08475 3.44477
thorax 3.73619 2.85038 -2.40109
lowerneck -11.9703 5.42601 -9.51011
upperneck 32.2587 8.8896 0.55393
head 12.1971 2.44164 2.9257
rclavicle 2.0773e-014 1.63003e-014
rhumerus -32.2915 -6.24067 -80.8977
rradius 39.1459
rwrist -11.8298
rhand -18.1182 15.3345
rfingers 7.12502
rthumb 8.15623 -14.4881
lclavicle 2.0773e-014 1.63003e-014
lhumerus -41.5046 -11.4591 95.6988
lradius 64.813
lwrist -6.0167
lhand -41.9504 25.9801
lfingers 7.12502
lthumb -14.8474 55.4281
rfemur -29.6126 -13.1523 20.7354
rtibia 74.9879
rfoot 19.4362 0.225109
rtoes -6.41583
lfemur -43.882 17.1508 8.69059
ltibia 86.5714
lfoot 20.4388 -4.50316
ltoes -15.5638
